HIERARCHY
ROOT Hips
{
	OFFSET 0.000000 0.000000 0.000000
	CHANNELS 6 Xposition Yposition Zposition Zrotation Yrotation Xrotation 
	JOINT LHipJoint
	{
		OFFSET 0.000000 0.000000 0.000000
		CHANNELS 3 Zrotation Yrotation Xrotation
		JOINT LeftUpLeg
		{
			OFFSET 8.178360 -10.767780 5.035740
			CHANNELS 3 Zrotation Yrotation Xrotation
			JOINT LeftLeg
			{
				OFFSET 14.688660 -40.356780 0.000000
				CHANNELS 3 Zrotation Yrotation Xrotation
				JOINT LeftFoot
				{
					OFFSET 15.373200 -42.237540 0.000000
					CHANNELS 3 Zrotation Yrotation Xrotation
					JOINT LeftToeBase
					{
						OFFSET 0.945840 -2.598660 13.935300
						CHANNELS 3 Zrotation Yrotation Xrotation
						End Site
						{
							OFFSET 0.000000 0.000000 0.000000
						}
					}
				}
			}
		}
	}
	JOINT RHipJoint
	{
		OFFSET 0.000000 0.000000 0.000000
		CHANNELS 3 Zrotation Yrotation Xrotation
		JOINT RightUpLeg
		{
			OFFSET -7.833120 -10.767780 5.035740
			CHANNELS 3 Zrotation Yrotation Xrotation
			JOINT RightLeg
			{
				OFFSET -15.255180 -41.913300 0.000000
				CHANNELS 3 Zrotation Yrotation Xrotation
				JOINT RightFoot
				{
					OFFSET -15.409560 -42.337380 0.000000
					CHANNELS 3 Zrotation Yrotation Xrotation
					JOINT RightToeBase
					{
						OFFSET -0.988380 -2.715540 14.178900
						CHANNELS 3 Zrotation Yrotation Xrotation
						End Site
						{
							OFFSET 0.000000 0.000000 0.000000
						}
					}
				}
			}
		}
	}
	JOINT LowerBack
	{
		OFFSET 0.000000 0.000000 0.000000
		CHANNELS 3 Zrotation Yrotation Xrotation
		JOINT Spine
		{
			OFFSET 0.169620 12.213540 -1.160280
			CHANNELS 3 Zrotation Yrotation Xrotation
			JOINT Spine1
			{
				OFFSET 0.340320 12.293100 -0.256500
				CHANNELS 3 Zrotation Yrotation Xrotation
				JOINT Neck
				{
					OFFSET 0.000000 0.000000 0.000000
					CHANNELS 3 Zrotation Yrotation Xrotation
					JOINT Neck1
					{
						OFFSET -0.325020 10.477440 1.032120
						CHANNELS 3 Zrotation Yrotation Xrotation
						JOINT Head
						{
							OFFSET 0.624420 10.568160 -0.743820
							CHANNELS 3 Zrotation Yrotation Xrotation
							End Site
							{
								OFFSET 0.000000 0.000000 0.000000
							}
						}
					}
				}
				JOINT LeftShoulder
				{
					OFFSET 0.000000 0.000000 0.000000
					CHANNELS 3 Zrotation Yrotation Xrotation
					JOINT LeftArm
					{
						OFFSET 20.174460 7.205340 -1.867260
						CHANNELS 3 Zrotation Yrotation Xrotation
						JOINT LeftForeArm
						{
							OFFSET 29.898000 -0.000000 -0.000000
							CHANNELS 3 Zrotation Yrotation Xrotation
							JOINT LeftHand
							{
								OFFSET 20.901360 -0.000000 -0.000000
								CHANNELS 3 Zrotation Yrotation Xrotation
								JOINT LeftFingerBase
								{
									OFFSET 0.000000 0.000000 0.000000
									CHANNELS 3 Zrotation Yrotation Xrotation
									JOINT LeftHandIndex1
									{
										OFFSET 4.291560 -0.000000 -0.000000
										CHANNELS 3 Zrotation Yrotation Xrotation
										End Site
										{
											OFFSET 0.000000 0.000000 0.000000
										}
									}
								}
								JOINT LThumb
								{
									OFFSET 0.000000 0.000000 0.000000
									CHANNELS 3 Zrotation Yrotation Xrotation
									End Site
									{
										OFFSET 0.000000 0.000000 0.000000
									}
								}
							}
						}
					}
				}
				JOINT RightShoulder
				{
					OFFSET 0.000000 0.000000 0.000000
					CHANNELS 3 Zrotation Yrotation Xrotation
					JOINT RightArm
					{
						OFFSET -18.819600 8.244300 -2.427900
						CHANNELS 3 Zrotation Yrotation Xrotation
						JOINT RightForeArm
						{
							OFFSET -31.451400 -0.000000 -0.000000
							CHANNELS 3 Zrotation Yrotation Xrotation
							JOINT RightHand
							{
								OFFSET -20.665020 -0.000000 -0.000000
								CHANNELS 3 Zrotation Yrotation Xrotation
								JOINT RightFingerBase
								{
									OFFSET 0.000000 0.000000 0.000000
									CHANNELS 3 Zrotation Yrotation Xrotation
									JOINT RightHandIndex1
									{
										OFFSET -3.735180 -0.000000 -0.000000
										CHANNELS 3 Zrotation Yrotation Xrotation
										End Site
										{
											OFFSET 0.000000 0.000000 0.000000
										}
									}
								}
								JOINT RThumb
								{
									OFFSET 0.000000 0.000000 0.000000
									CHANNELS 3 Zrotation Yrotation Xrotation
									End Site
									{
										OFFSET 0.000000 0.000000 0.000000
									}
								}
							}
						}
					}
				}
			}
		}
	}
}
MOTION
Frames:	7
Frame Time:	0.0333333
77.788416 107.165754 -140.015892 -1.705441 -1.131760 2.599605 -3.363756 0.242173 0.713207 -10.714300 -8.272581 -22.938249 -1.267886 5.298839 15.052051 0.537484 -1.184156 9.907283 1.102300 -6.671200 -18.744900 1.591160 -1.327483 2.163045 22.710832 -1.180816 13.445756 -0.009741 -4.037287 13.237296 0.150385 -3.159517 10.890409 0.000000 0.000000 0.000000 3.639368 2.913274 8.491425 0.904791 4.276639 1.577480 -3.198449 2.253483 -2.685133 -11.956677 -7.880234 -15.672004 8.228727 -8.656738 14.749476 4.601200 -4.137400 12.462900 -6.785753 -0.095334 -1.771470 -84.227058 8.852571 11.885396 13.593085 -19.578034 -2.728556 -1.547535 -2.218425 9.966258 18.755744 20.704203 8.099900 -7.125000 0.000000 0.000000 -9.707500 54.155700 -2.200300 5.204216 1.648081 -0.875437 86.230895 4.101390 25.216377 -17.295522 25.428441 -4.272209 0.439878 -0.123655 2.850311 -15.954384 8.702489 -2.574800 7.125000 0.000000 0.000000 7.554600 -20.859100 4.407400 
78.424824 107.600082 -136.694502 -1.148725 0.115423 2.391152 -3.440615 0.333857 0.977034 -12.246629 -7.307630 -21.593020 -1.241335 5.280563 15.307052 1.014923 -4.969622 10.628096 0.761100 -5.571500 -15.546200 1.614402 -1.276999 2.092493 22.055713 -1.342540 11.705185 -0.668232 -6.098313 19.227735 0.084042 -1.607713 4.391285 -0.088100 1.914000 -5.268000 3.324706 2.682033 8.359586 0.716818 3.947756 1.527350 -3.337484 2.076067 -2.758055 -12.030811 -8.147759 -15.392780 8.503112 -9.057684 14.562890 4.668000 -4.291400 12.402500 -6.820039 -0.083937 -1.744409 -83.788576 8.652130 10.744406 13.570790 -19.543659 -2.784626 -1.066586 -1.736887 13.550232 13.600690 15.054919 4.244700 -7.125000 0.000000 0.000000 -12.993200 47.064000 -0.672700 5.186426 1.659754 -0.888458 86.369187 2.892637 24.560985 -16.872450 24.876726 -4.070932 0.446716 -0.132859 3.115883 -16.078391 8.662919 -2.587000 7.125000 0.000000 0.000000 7.460500 -20.886100 4.346900 
79.057008 107.661006 -133.329684 -0.903738 1.210155 1.927329 -3.473576 0.443937 1.269811 -13.127893 -6.195644 -20.149689 -1.218874 5.211534 15.367094 1.313699 -7.929911 11.642547 0.465300 -4.375100 -12.134500 1.527477 -1.235001 1.899258 21.789711 -1.937037 9.657977 -1.795997 -8.461282 26.278612 0.212989 -3.214695 9.294963 -0.031900 1.153500 -3.171200 2.928119 2.390492 7.882964 0.785331 3.513856 1.748805 -2.827894 1.851241 -2.180708 -12.017021 -8.289805 -15.197558 8.302274 -9.227343 14.078860 4.524400 -4.384700 12.132500 -6.758899 -0.117204 -1.750978 -83.760232 8.498317 15.524234 14.335876 -20.668696 -3.106223 -1.381431 -2.254937 8.415153 17.974502 20.361222 7.606400 -7.125000 0.000000 0.000000 -10.462100 53.630300 -2.239300 5.217379 1.616402 -0.865544 85.768806 2.382166 24.433161 -15.883893 23.554168 -3.617411 0.445118 -0.158078 3.659468 -15.867770 8.802280 -2.598800 7.125000 0.000000 0.000000 7.608000 -20.731200 4.461200 
79.747104 108.064566 -129.856278 0.226756 2.291299 1.634598 -3.542807 0.559108 1.674341 -15.508240 -3.563384 -18.588205 -1.261971 4.813255 14.543389 1.496889 -11.481756 11.535717 0.513800 -4.594600 -12.755700 1.460162 -1.188393 1.641500 20.102892 -2.694966 5.370775 -3.511734 -11.085868 34.685790 -0.199412 -4.705439 17.697832 -0.011400 -0.688000 1.890700 1.712519 2.080300 7.100052 0.602665 2.983160 1.910641 -2.335323 1.570563 -1.533652 -12.034297 -8.337053 -15.179456 8.461065 -9.325622 14.190111 4.570400 -4.406900 12.170300 -6.720709 -0.138346 -1.737187 -83.257529 8.201066 17.443572 15.055110 -21.735980 -3.496282 -1.236484 -2.108689 9.526281 16.767531 18.779318 6.526000 -7.125000 0.000000 0.000000 -11.158500 51.651300 -1.847000 5.204680 1.587015 -0.850931 85.346565 1.789967 24.574795 -15.277855 22.744746 -3.351084 0.466436 -0.210082 4.674559 -16.535486 9.528891 -2.947100 7.125000 0.000000 0.000000 7.099600 -19.900400 4.291800 
80.335860 108.422886 -126.683286 1.515258 3.189029 1.103086 -3.633930 0.834855 2.088539 -17.454993 -3.488165 -15.184556 -1.437903 3.942494 12.442756 1.382071 -10.951836 13.332344 0.004600 -0.436500 -1.199300 1.392563 -1.198408 1.411102 18.377732 -2.104423 1.026559 -5.791496 -13.652690 43.745722 -0.755571 -7.877388 25.102128 -0.247200 -3.199500 8.834600 0.541653 2.043971 7.988930 0.307858 2.847366 1.598541 -2.205325 1.471801 -2.675474 -12.159898 -8.398360 -14.338515 8.447511 -9.514510 14.525577 4.587200 -4.529400 12.197400 -6.609620 -0.179411 -1.768028 -82.424368 8.808612 21.226682 16.062365 -23.201388 -4.032689 -1.234328 -2.309654 7.223970 17.882468 20.743844 7.649900 -7.125000 0.000000 0.000000 -10.825500 54.005400 -2.418100 5.121281 1.601421 -0.893452 85.547931 0.051506 22.205627 -15.374526 22.909355 -3.402823 0.404368 -0.237489 7.597534 -15.640740 9.599591 -2.798500 7.125000 0.000000 0.000000 7.771200 -19.868900 4.710600 
80.939088 108.685290 -123.632142 2.966634 3.686610 0.523931 -3.676961 1.119873 2.504933 -19.795811 -2.835104 -11.278936 -1.598151 2.739387 9.430205 1.268097 -11.883578 12.325806 0.081800 -1.845400 -5.078600 1.268133 -1.199276 1.155206 16.425381 -0.865304 -3.495351 -8.433069 -15.865961 52.948654 -1.111308 -11.036223 29.020844 -0.645000 -5.137700 14.301800 -1.109763 1.732564 8.137912 0.193593 2.295224 1.820908 -1.442313 1.160395 -2.381244 -12.125082 -8.347346 -15.111401 7.948017 -9.354110 14.977150 4.375900 -4.489000 12.487800 -6.637363 -0.325103 -1.722020 -82.367290 7.342436 21.541643 16.199306 -23.330509 -4.096306 -1.377863 -2.109262 5.808608 20.235824 18.252221 7.812200 -7.125000 0.000000 0.000000 -7.240700 51.698800 -1.199700 5.139102 1.581176 -0.902850 85.207017 -0.052201 21.506722 -15.265457 22.753069 -3.348260 0.424197 -0.271480 7.549382 -16.246085 10.351034 -3.144200 7.125000 0.000000 0.000000 7.316400 -19.025900 4.568800 
81.368592 108.779394 -120.714918 3.280653 4.430061 -0.120272 -3.629738 1.368936 2.840760 -20.612903 -2.364161 -8.053055 -1.648036 1.985705 7.580635 1.191463 -12.383558 11.583870 0.136800 -2.383600 -6.567000 1.130547 -1.165106 0.967867 15.966527 -0.293220 -7.921893 -10.555965 -17.273741 60.338581 -0.372254 -11.418854 24.772906 -0.520800 -4.624900 12.841800 -1.685347 1.318133 8.727161 0.285855 1.700445 1.787382 -0.921732 0.821756 -2.766060 -12.156264 -8.023966 -14.987496 7.700133 -8.895224 15.155567 4.353400 -4.332200 12.460000 -6.682827 -0.500463 -1.654985 -82.248183 5.347503 20.669161 15.835918 -22.734100 -3.869843 -1.365076 -2.367277 7.913708 18.522642 22.167917 8.443500 -7.125000 0.000000 0.000000 -10.732300 55.660200 -2.831200 5.164625 1.619924 -0.929858 85.095665 -0.682288 20.650596 -15.457724 22.997727 -3.422900 0.440173 -0.260666 6.420265 -16.460925 10.414376 -3.206600 7.125000 0.000000 0.000000 7.157000 -18.950400 4.479800 
